<mxfile host="app.diagrams.net" modified="2022-10-25T04:44:11.014Z" agent="5.0 (Windows NT 10.0; Win64; x64) AppleWebKit/537.36 (KHTML, like Gecko) Chrome/106.0.0.0 Safari/537.36" etag="bNC8Zca00dGUeh2UhobI" version="20.5.1" type="github">
  <diagram id="ZoR65h-42-SRrp7B7kM1" name="第 1 页">
    <mxGraphModel dx="782" dy="528" grid="1" gridSize="10" guides="1" tooltips="1" connect="1" arrows="1" fold="1" page="1" pageScale="1" pageWidth="827" pageHeight="1169" math="0" shadow="0">
      <root>
        <mxCell id="0" />
        <mxCell id="1" parent="0" />
        <mxCell id="LSZir2JrEcswwmEVPmyj-1" value="copr.openeuler.org" style="html=1;dropTarget=0;" vertex="1" parent="1">
          <mxGeometry x="234" y="140" width="180" height="90" as="geometry" />
        </mxCell>
        <mxCell id="LSZir2JrEcswwmEVPmyj-2" value="" style="shape=module;jettyWidth=8;jettyHeight=4;" vertex="1" parent="LSZir2JrEcswwmEVPmyj-1">
          <mxGeometry x="1" width="20" height="20" relative="1" as="geometry">
            <mxPoint x="-27" y="7" as="offset" />
          </mxGeometry>
        </mxCell>
        <mxCell id="LSZir2JrEcswwmEVPmyj-3" value="src.openeuler.org" style="html=1;dropTarget=0;" vertex="1" parent="1">
          <mxGeometry x="460" y="140" width="180" height="90" as="geometry" />
        </mxCell>
        <mxCell id="LSZir2JrEcswwmEVPmyj-4" value="" style="shape=module;jettyWidth=8;jettyHeight=4;" vertex="1" parent="LSZir2JrEcswwmEVPmyj-3">
          <mxGeometry x="1" width="20" height="20" relative="1" as="geometry">
            <mxPoint x="-27" y="7" as="offset" />
          </mxGeometry>
        </mxCell>
      </root>
    </mxGraphModel>
  </diagram>
</mxfile>
